<svg xmlns="http://www.w3.org/2000/svg" version="1.1" xmlns:xlink="http://www.w3.org/1999/xlink" xmlns:svgjs="http://svgjs.dev/svgjs" width="1000" height="1000" viewBox="0 0 1000 1000"><rect width="1000" height="1000" fill="#ffffff"></rect><g transform="matrix(0.7,0,0,0.7,149.57575757575756,282.1265587044535)"><svg viewBox="0 0 396 247" data-background-color="#ffffff" preserveAspectRatio="xMidYMid meet" height="623" width="1000" xmlns="http://www.w3.org/2000/svg" xmlns:xlink="http://www.w3.org/1999/xlink"><g id="tight-bounds" transform="matrix(1,0,0,1,0.2400000000000091,-0.09999999999999432)"><svg viewBox="0 0 395.52 247.2" height="247.2" width="395.52"><g><svg></svg></g><g><svg viewBox="0 0 395.52 247.2" height="247.2" width="395.52"><g transform="matrix(1,0,0,1,75.54432,91.34069375585165)"><svg viewBox="0 0 244.43135999999998 64.5186124882967" height="64.5186124882967" width="244.43135999999998"><g><svg viewBox="0 0 244.43135999999998 64.5186124882967" height="64.5186124882967" width="244.43135999999998"><g><svg viewBox="0 0 244.43135999999998 64.5186124882967" height="64.5186124882967" width="244.43135999999998"><g><svg viewBox="0 0 244.43135999999998 64.5186124882967" height="64.5186124882967" width="244.43135999999998"><g><svg viewBox="0 0 244.43135999999998 64.5186124882967" height="64.5186124882967" width="244.43135999999998"><g><svg viewBox="0 0 244.43135999999998 64.5186124882967" height="64.5186124882967" width="244.43135999999998"><g transform="matrix(1,0,0,1,0,0)"><svg width="244.43135999999998" viewBox="3.5 -36.25 138.84 36.65" height="64.5186124882967" data-palette-color="#000000"><path d="M23.65-16.15L23.5-33.85 29.45-33.85 29.45 0.05 24.5 0.05 13.1-17.75Q12.15-19.2 11.03-21.03 9.9-22.85 8.9-24.4L8.9-24.4Q9.05-22.8 9.18-21.05 9.3-19.3 9.3-17.7L9.3-17.7 9.45 0 3.5 0 3.5-33.95 8.15-33.95 19.9-16.35Q20.9-14.9 21.93-13.28 22.95-11.65 23.95-10.15L23.95-10.15Q23.85-11.75 23.75-13.38 23.65-15 23.65-16.15L23.65-16.15ZM55.95-23.85L55.95-12.05Q55.95-9.05 56.32-7.03 56.7-5 57.15-3.75L57.15-3.75Q57.7-2.25 58.35-1.4L58.35-1.4 53.9 0.4Q53.25-0.25 52.7-1.15L52.7-1.15Q52.25-1.95 51.85-3.08 51.45-4.2 51.35-5.75L51.35-5.75Q50.5-2.75 48.62-1.23 46.75 0.3 43.55 0.3L43.55 0.3Q41.2 0.3 39.47-0.58 37.75-1.45 36.6-3.08 35.45-4.7 34.9-7 34.35-9.3 34.35-12.1L34.35-12.1Q34.35-14.95 35.22-17.38 36.1-19.8 37.67-21.55 39.25-23.3 41.45-24.3 43.65-25.3 46.3-25.3L46.3-25.3Q47.8-25.3 49.42-25.08 51.05-24.85 52.45-24.6 53.85-24.35 54.82-24.13 55.8-23.9 55.95-23.85L55.95-23.85ZM44.5-3.7Q45.75-3.7 46.8-4.55 47.85-5.4 48.62-6.78 49.4-8.15 49.82-9.93 50.25-11.7 50.25-13.55L50.25-13.55 50.25-20.75Q49.75-20.9 48.75-21.1 47.75-21.3 46.95-21.3L46.95-21.3Q45.05-21.3 43.82-20.65 42.6-20 41.85-18.85 41.1-17.7 40.8-16.1 40.5-14.5 40.5-12.6L40.5-12.6Q40.5-10.85 40.6-9.25 40.7-7.65 41.12-6.4 41.55-5.15 42.35-4.42 43.15-3.7 44.5-3.7L44.5-3.7ZM77.45-12.7L77.45-24.9 83.15-24.9 83.15-12.05Q83.15-9.05 83.52-7.03 83.9-5 84.35-3.75L84.35-3.75Q84.9-2.25 85.55-1.4L85.55-1.4 81.1 0.4Q80.5-0.15 80-1L80-1Q79.6-1.7 79.17-2.73 78.75-3.75 78.6-5.15L78.6-5.15Q77.25-2.2 74.8-0.95 72.35 0.3 69.7 0.3L69.7 0.3Q65.75 0.3 64.07-2 62.4-4.3 62.4-8.3L62.4-8.3 62.4-24.9 68.1-24.9 68.1-8.4Q68.1-6.3 68.85-5.1 69.6-3.9 71.4-3.9L71.4-3.9Q72.5-3.9 73.57-4.53 74.65-5.15 75.52-6.3 76.4-7.45 76.92-9.08 77.45-10.7 77.45-12.7L77.45-12.7ZM90.09-35.25L95.79-36.25 95.79-22Q96.19-22.5 96.82-23.08 97.44-23.65 98.39-24.15 99.34-24.65 100.59-25 101.84-25.35 103.49-25.35L103.49-25.35Q105.04-25.35 106.39-24.9 107.74-24.45 108.72-23.6 109.69-22.75 110.27-21.53 110.84-20.3 110.84-18.75L110.84-18.75Q110.84-16.5 109.92-15.05 108.99-13.6 107.84-12.75L107.84-12.75Q106.54-11.75 104.84-11.15L104.84-11.15 111.84 0 105.39 0 98.19-12.45 98.14-12.95Q98.54-13.05 99.67-13.4 100.79-13.75 101.99-14.4 103.19-15.05 104.12-16.03 105.04-17 105.04-18.35L105.04-18.35Q105.04-19.8 104.19-20.55 103.34-21.3 101.94-21.3L101.94-21.3Q100.04-21.3 98.84-20.55 97.64-19.8 96.97-18.85 96.29-17.9 96.04-17.05 95.79-16.2 95.79-16.05L95.79-16.05 95.79 0 90.09 0 90.09-35.25ZM126.24-19.7Q125.34-19.7 124.44-19.25 123.54-18.8 122.84-18.03 122.14-17.25 121.69-16.15 121.24-15.05 121.24-13.7L121.24-13.7 121.24 0 115.54 0 115.54-12.6Q115.54-15.6 115.14-17.63 114.74-19.65 114.29-20.9L114.29-20.9Q113.74-22.35 113.09-23.25L113.09-23.25 117.59-25.05Q118.04-24.5 118.54-23.7L118.54-23.7Q118.94-23 119.34-22.05 119.74-21.1 119.99-19.8L119.99-19.8Q120.99-22.7 122.89-23.98 124.79-25.25 127.19-25.25L127.19-25.25Q128.34-25.25 129.34-24.98 130.34-24.7 130.29-24.7L130.29-24.7 128.69-19.15Q128.74-19.15 128.12-19.43 127.49-19.7 126.24-19.7L126.24-19.7ZM138.79 0.2Q136.14 0.2 134.74-1.38 133.34-2.95 133.34-5.45L133.34-5.45 133.34-24.9 139.04-24.9 139.04-5.95Q139.04-4.8 139.39-4.4 139.74-4 140.44-4L140.44-4Q140.64-4 140.86-4 141.09-4 141.29-4.05L141.29-4.05Q141.49-4.05 141.74-4.1L141.74-4.1 142.34-0.5Q141.99-0.3 141.44-0.15L141.44-0.15Q140.99 0 140.31 0.1 139.64 0.2 138.79 0.2L138.79 0.2ZM136.29-36Q137.89-36 138.74-35.05 139.59-34.1 139.59-32.6L139.59-32.6Q139.59-31.1 138.71-30.1 137.84-29.1 136.14-29.1L136.14-29.1Q134.54-29.1 133.66-30.08 132.79-31.05 132.79-32.45L132.79-32.45Q132.79-34 133.66-35 134.54-36 136.29-36L136.29-36Z" opacity="1" transform="matrix(1,0,0,1,0,0)" fill="#000000" class="undefined-text-0" data-fill-palette-color="primary" id="text-0"></path></svg></g></svg></g></svg></g></svg></g></svg></g></svg></g></svg></g><path d="M201.851 85.341L201.851 27.433 9.517 27.433 9.517 219.767 201.851 219.767 201.851 161.859 196.032 161.859 196.032 213.949 15.335 213.949 15.335 33.251 196.032 33.251 196.032 85.341Z" fill="#000000" stroke="transparent" data-fill-palette-color="primary"></path></svg></g><defs></defs></svg><rect width="395.52" height="247.2" fill="none" stroke="none" visibility="hidden"></rect></g></svg></g></svg>